<?xml version="1.0" encoding="utf-8"?>
<!-- Generator: Adobe Illustrator 21.0.0, SVG Export Plug-In . SVG Version: 6.00 Build 0)  -->
<svg version="1.1" id="Layer_1" xmlns="http://www.w3.org/2000/svg" xmlns:xlink="http://www.w3.org/1999/xlink" x="0px" y="0px"
	 viewBox="0 0 401 300" style="enable-background:new 0 0 401 300;" xml:space="preserve">
<style type="text/css">
	.st0{fill:#0061FF;}
	.st1{display:none;}
	.st2{display:inline;}
	.st3{fill:none;}
</style>
<path class="st0" d="M52.3,124.3l-22.4,14.3l22.4,14.3l-22.4,14.3L7.5,152.8l22.4-14.3L7.5,124.3L29.9,110L52.3,124.3z M29.8,171.7
	l22.4-14.3l22.4,14.3L52.2,186L29.8,171.7z M52.3,152.8l22.4-14.3l-22.4-14.2L74.6,110L97,124.3l-22.4,14.3L97,152.9l-22.4,14.3
	L52.3,152.8z"/>
<path d="M114.5,124.3h18.1c11.6,0,21.1,6.7,21.1,21.9v3.2c0,15.4-8.9,22.3-20.7,22.3h-18.5V124.3z M124.6,132.9V163h7.7
	c6.6,0,11-4.3,11-13.8v-2.5c0-9.5-4.6-13.8-11.3-13.8H124.6z M159,133.3h8.1l1.3,8.9c1.5-6.1,5.5-9.3,12.6-9.3h2.5v10.2h-4.2
	c-8.2,0-10.2,2.9-10.2,11v17.6h-10v-38.5H159z M185.6,153.4v-1.1c0-12.9,8.2-19.9,19.4-19.9c11.4,0,19.4,7,19.4,19.9v1.1
	c0,12.6-7.7,19.4-19.4,19.4C192.6,172.7,185.6,166,185.6,153.4z M214.2,153.2v-1c0-7.1-3.6-11.4-9.3-11.4c-5.6,0-9.3,3.9-9.3,11.4v1
	c0,6.9,3.6,10.8,9.3,10.8C210.6,164,214.2,160.2,214.2,153.2z M229.7,133.3h8.3l1,7.3c2-4.9,6.3-8.2,12.6-8.2c9.8,0,16.2,7,16.2,20
	v1.1c0,12.6-7.1,19.3-16.2,19.3c-6.1,0-10.2-2.7-12.3-7.1v19.4h-9.8L229.7,133.3L229.7,133.3z M257.7,153.2v-0.8
	c0-7.6-3.9-11.4-9.2-11.4c-5.6,0-9.3,4.3-9.3,11.4v0.7c0,6.8,3.6,11.1,9.2,11.1C254.1,164.1,257.7,160.4,257.7,153.2z M282.6,164.7
	l-0.8,7h-8.6v-51.2h9.8v19.7c2.1-5,6.4-7.7,12.5-7.7c9.2,0.1,16,6.4,16,19.2v1.2c0,12.7-6.4,20-16.2,20
	C288.8,172.7,284.6,169.7,282.6,164.7z M301.2,152.8v-1c0-7-3.8-11-9.2-11c-5.5,0-9.3,4.4-9.3,11.1v0.8c0,7.1,3.7,11.3,9.2,11.3
	C297.7,164.1,301.2,160.4,301.2,152.8z M315.7,153.4v-1.1c0-12.9,8.2-19.9,19.4-19.9c11.4,0,19.4,7,19.4,19.9v1.1
	c0,12.6-7.9,19.4-19.4,19.4C322.7,172.7,315.7,166,315.7,153.4z M344.4,153.2v-1c0-7.1-3.6-11.4-9.3-11.4c-5.6,0-9.3,3.9-9.3,11.4v1
	c0,6.9,3.6,10.8,9.3,10.8C340.8,164,344.4,160.2,344.4,153.2z M367.6,151.8l-13.5-18.5h11.6l7.7,11.6l7.9-11.6h11.4l-13.7,18.3
	l14.4,20h-11.3l-8.8-12.7l-8.6,12.7H353L367.6,151.8z"/>
<g id="Editble" class="st1">
	<g class="st2">
		<rect x="-66.5" y="123.1" class="st3" width="506" height="71.8"/>
		<path d="M38.7,131.7H55c10.4,0,19,6.1,19,19.8v2.9c0,13.8-8,20-18.7,20H38.7V131.7z M47.9,139.4v27.2h7c5.9,0,9.9-3.9,9.9-12.5
			v-2.2c0-8.6-4.1-12.5-10.2-12.5H47.9z M78.9,139.9h7.3l1.1,8c1.4-5.5,4.9-8.3,11.3-8.3h2.2v9.2h-3.7c-7.4,0-9.2,2.6-9.2,9.9v15.8
			h-9C78.9,174.5,78.9,139.9,78.9,139.9z M102.8,157.9v-1c0-11.6,7.4-17.9,17.5-17.9c10.3,0,17.5,6.4,17.5,17.9v1
			c0,11.4-7,17.5-17.5,17.5C109.1,175.4,102.8,169.3,102.8,157.9z M128.6,157.8V157c0-6.5-3.2-10.3-8.3-10.3c-5,0-8.4,3.5-8.4,10.3
			v0.8c0,6.2,3.2,9.7,8.3,9.7C125.4,167.5,128.6,164.1,128.6,157.8z M142.5,139.9h7.6l0.9,6.6c1.9-4.4,5.7-7.4,11.4-7.4
			c8.8,0,14.6,6.4,14.6,18v1c0,11.4-6.4,17.3-14.6,17.3c-5.5,0-9.2-2.5-11-6.5v17.5h-8.9V139.9z M167.8,157.9v-0.8
			c0-6.9-3.5-10.3-8.3-10.3c-5,0-8.4,3.8-8.4,10.3v0.7c0,6.1,3.2,10,8.2,10C164.5,167.6,167.8,164.2,167.8,157.9z M190.2,168.2
			l-0.7,6.3h-7.8v-46.2h8.8v17.8c1.9-4.5,5.8-7,11.2-7c8.2,0.1,14.3,5.8,14.3,17.3v1c0,11.5-5.8,18-14.6,18
			C195.8,175.4,192,172.6,190.2,168.2z M207,157.4v-0.8c0-6.4-3.5-9.8-8.3-9.8c-5,0-8.4,4-8.4,10v0.7c0,6.5,3.3,10.2,8.3,10.2
			C203.8,167.6,207,164.2,207,157.4z M220.1,157.9v-1c0-11.6,7.4-17.9,17.5-17.9c10.3,0,17.5,6.4,17.5,17.9v1
			c0,11.4-7.1,17.5-17.5,17.5C226.4,175.4,220.1,169.3,220.1,157.9z M245.9,157.8V157c0-6.5-3.2-10.3-8.3-10.3
			c-5,0-8.4,3.5-8.4,10.3v0.8c0,6.2,3.2,9.7,8.3,9.7C242.7,167.5,245.9,164.1,245.9,157.8z M266.8,156.5l-12.1-16.7h10.4l7,10.4
			l7.1-10.4h10.3l-12.3,16.6l13,18H280l-8-11.5l-7.7,11.5h-10.6L266.8,156.5z"/>
	</g>
</g>
</svg>
